<svg version="1.2" xmlns="http://www.w3.org/2000/svg" viewBox="0 0 441 120" width="200" height="80">
	<title>fresh-apple-svg</title>
	<style>
		.s0 { fill: #6C63FF } 
		.s1 { fill: #7db820 } 
		.s2 { fill: #537918 } 
		.s3 { fill: #543429 } 
		.s4 { fill: #ffffff } 
		.s5 { fill: #000000 } 
	</style>
	<g id="Layer">
		<path id="Layer" fill-rule="evenodd" class="s0" d="m63.7 29.8c10.2-2.3 18.3-1.2 24.7 2.2 23.7 12.7 20 38.7 9.5 59-4.9 9.3-15.2 24.3-25.3 28-6.9 2.6-13.3 1.5-19.3-1.4-7.7 4.2-15.9 5.1-25.2-1.6-9.9-8.6-16.2-18.1-21.4-27.3-17.5-30.7 1.2-69.4 34.9-58.9 6.8 2.1 15.3 2.4 22.1 0z"/>
		<path id="Layer" fill-rule="evenodd" class="s1" d="m9.1 2.6l7.1-0.7c18.1-2.8 29.1 3.1 35.6 14.6l-1.1 5.9c-6 3.2-11.6 4.4-16.7 3.7-13.3-1.6-19.7-12.7-24.9-23.5z"/>
		<path id="Layer" fill-rule="evenodd" class="s2" d="m17.3 6.5c11.8 4.1 19.6 5.8 29.5 13.5-11.7-3.9-19.2-6.4-29.5-13.5z"/>
		<path id="Layer" fill-rule="evenodd" class="s3" d="m51.2 18.2q0.4-1.3 0.8-2.6c2.2-6.7 5.9-12.2 10.8-16.8 1.3-1.1 3.3-1.1 4.4 0.2 1.2 1.3 1.1 3.3-0.1 4.5-4.2 3.8-7.3 8.5-9.1 14-1.4 4.2-2.1 8.8-2 14.1l-6.3-0.1c0-2.8 0.1-5.2 0.4-7.7z"/>
		<path id="Layer" fill-rule="evenodd" class="s4" d="m16.9 76.6c1.2-0.4 2.6 0.2 3 1.5 1.4 4 3.4 7.7 5.9 11 2.5 3.3 5.6 6.4 9.1 9.2 1 0.8 1.1 2.3 0.3 3.3-0.8 1-2.3 1.2-3.4 0.4-3.7-3.1-7-6.4-9.8-10-2.9-3.7-5.1-7.8-6.6-12.4-0.5-1.2 0.2-2.6 1.5-3z"/>
		<path id="My Meal" class="s5" aria-label="My Meal"  d="m129.5 98h-11.5l8.4-60.9h9.1l14.9 27.8 14.8-27.8h9.1l8.5 60.9h-11.6l-5.8-45.8 3 0.6-18 32.4-18.1-32.3 3.1-0.6zm74.3 21.1h-10.8l9.6-23.9-18.1-40.7h12l11.2 28 11.3-28h12zm62.4-21h-11.6l8.4-60.9h9.2l14.8 27.7 14.8-27.7h9.2l8.4 60.9h-11.6l-5.8-45.8 3 0.6-18 32.4-18.1-32.3 3.1-0.6zm81.9 0.9q-7.8 0-13.1-3.2-5.2-3.1-7.8-8.3-2.6-5.2-2.6-11.4 0-6 2.4-11 2.5-5.1 7.2-8.1 4.8-3.1 11.6-3.1 6.3 0 10.4 2.6 4.2 2.5 6.3 6.8 2.1 4.3 2.1 9.5 0 1.4-0.2 2.9-0.2 1.4-0.5 3h-28.1q0.6 4 2.5 6.6 2 2.4 4.8 3.6 2.8 1.2 6 1.2 3.8 0 7-1 3.3-1 6.1-2.6l0.5 9.2q-2.5 1.3-6.2 2.3-3.7 1-8.4 1zm-12-27.6h17.5q0-2-0.7-3.9-0.8-2-2.5-3.4-1.7-1.3-4.6-1.3-4.2 0-6.6 2.4-2.4 2.4-3.1 6.2zm45.3 27.6q-3.5 0-6.4-1.6-2.8-1.5-4.5-4.4-1.7-3-1.7-7.1 0-3.7 1.7-6.3 1.7-2.6 4.5-4.4 2.8-1.8 6.1-2.8 3.3-1 6.5-1.5 3.2-0.5 5.6-0.6-0.2-3.7-1.9-5.4-1.7-1.7-5.9-1.7-2.9 0-5.7 0.8-2.8 0.8-6.2 2.5l-1-8.8q3.9-1.9 7.8-2.8 4-1 8-1 4.9 0 8.4 1.7 3.6 1.8 5.5 5.7 1.9 3.8 1.9 10.1v11.7q0 3.3 0.3 4.8 0.3 1.4 1.1 1.8 0.8 0.4 2.4 0.4h1.4l-1 8.9h-3.9q-2.4 0-4.3-0.6-1.9-0.7-3.2-1.8-1.4-1.2-2.2-2.7-2.1 2.4-5.8 3.8-3.6 1.3-7.5 1.3zm4.5-8.3q1.4 0 3.6-0.7 2.1-0.8 3.8-2.4v-9.9q-3 0.1-6.1 1-3 0.8-5.1 2.5-2 1.7-2 4.3 0 2.6 1.4 3.9 1.4 1.3 4.4 1.3zm44.5 8.3h-4q-3.8 0-6.3-1.6-2.4-1.5-3.6-4.1-1.2-2.6-1.2-5.7v-54.8h10.8v50.3q0 3.5 0.4 5 0.4 1.4 1.6 1.7 1.1 0.3 3.2 0.3z"/>
	</g>
</svg>